<svg width="2109" height="40" viewBox="0 0 2109 40" fill="none" xmlns="http://www.w3.org/2000/svg">
<path d="M95 0H138L72 40H29L95 0Z" fill="#FEC22E"/>
<path d="M168 0H211L145 40H102L168 0Z" fill="#FEC22E"/>
<path d="M241 0H284L218 40H175L241 0Z" fill="#FEC22E"/>
<path d="M314 0H357L291 40H248L314 0Z" fill="#FEC22E"/>
<path d="M387 0H430L364 40H321L387 0Z" fill="#FEC22E"/>
<path d="M460 0H503L437 40H394L460 0Z" fill="#FEC22E"/>
<path d="M533 0H576L510 40H467L533 0Z" fill="#FEC22E"/>
<path d="M606 0H649L583 40H540L606 0Z" fill="#FEC22E"/>
<path d="M679 0H722L656 40H613L679 0Z" fill="#FEC22E"/>
<path d="M752 0H795L729 40H686L752 0Z" fill="#FEC22E"/>
<path d="M825 0H868L802 40H759L825 0Z" fill="#FEC22E"/>
<path d="M898 0H941L875 40H832L898 0Z" fill="#FEC22E"/>
<path d="M971 0H1014L948 40H905L971 0Z" fill="#FEC22E"/>
<path d="M1044 0H1087L1021 40H978L1044 0Z" fill="#FEC22E"/>
<path d="M1117 0H1160L1094 40H1051L1117 0Z" fill="#FEC22E"/>
<path d="M1190 0H1233L1167 40H1124L1190 0Z" fill="#FEC22E"/>
<path d="M1263 0H1306L1240 40H1197L1263 0Z" fill="#FEC22E"/>
<path d="M1336 0H1379L1313 40H1270L1336 0Z" fill="#FEC22E"/>
<path d="M1409 0H1452L1386 40H1343L1409 0Z" fill="#FEC22E"/>
<path d="M1482 0H1525L1459 40H1416L1482 0Z" fill="#FEC22E"/>
<path d="M1555 0H1598L1532 40H1489L1555 0Z" fill="#FEC22E"/>
<path d="M1628 0H1671L1605 40H1562L1628 0Z" fill="#FEC22E"/>
<path d="M1701 0H1744L1678 40H1635L1701 0Z" fill="#FEC22E"/>
<path d="M1774 0H1817L1751 40H1708L1774 0Z" fill="#FEC22E"/>
<path d="M1847 0H1890L1824 40H1781L1847 0Z" fill="#FEC22E"/>
<path d="M1920 0H1963L1897 40H1854L1920 0Z" fill="#FEC22E"/>
<path d="M1993 0H2036L1970 40H1927L1993 0Z" fill="#FEC22E"/>
<path d="M2066 0H2109L2043 40H2000L2066 0Z" fill="#FEC22E"/>
<path d="M66 0H95L29 40H0L66 0Z" fill="#222222"/>
<path d="M139 0H168L102 40H73L139 0Z" fill="#222222"/>
<path d="M212 0H241L175 40H146L212 0Z" fill="#222222"/>
<path d="M285 0H314L248 40H219L285 0Z" fill="#222222"/>
<path d="M358 0H387L321 40H292L358 0Z" fill="#222222"/>
<path d="M431 0H460L394 40H365L431 0Z" fill="#222222"/>
<path d="M504 0H533L467 40H438L504 0Z" fill="#222222"/>
<path d="M577 0H606L540 40H511L577 0Z" fill="#222222"/>
<path d="M650 0H679L613 40H584L650 0Z" fill="#222222"/>
<path d="M723 0H752L686 40H657L723 0Z" fill="#222222"/>
<path d="M796 0H825L759 40H730L796 0Z" fill="#222222"/>
<path d="M869 0H898L832 40H803L869 0Z" fill="#222222"/>
<path d="M942 0H971L905 40H876L942 0Z" fill="#222222"/>
<path d="M1015 0H1044L978 40H949L1015 0Z" fill="#222222"/>
<path d="M1088 0H1117L1051 40H1022L1088 0Z" fill="#222222"/>
<path d="M1161 0H1190L1124 40H1095L1161 0Z" fill="#222222"/>
<path d="M1234 0H1263L1197 40H1168L1234 0Z" fill="#222222"/>
<path d="M1307 0H1336L1270 40H1241L1307 0Z" fill="#222222"/>
<path d="M1380 0H1409L1343 40H1314L1380 0Z" fill="#222222"/>
<path d="M1453 0H1482L1416 40H1387L1453 0Z" fill="#222222"/>
<path d="M1526 0H1555L1489 40H1460L1526 0Z" fill="#222222"/>
<path d="M1599 0H1628L1562 40H1533L1599 0Z" fill="#222222"/>
<path d="M1672 0H1701L1635 40H1606L1672 0Z" fill="#222222"/>
<path d="M1745 0H1774L1708 40H1679L1745 0Z" fill="#222222"/>
<path d="M1818 0H1847L1781 40H1752L1818 0Z" fill="#222222"/>
<path d="M1891 0H1920L1854 40H1825L1891 0Z" fill="#222222"/>
<path d="M1964 0H1993L1927 40H1898L1964 0Z" fill="#222222"/>
<path d="M2037 0H2066L2000 40H1971L2037 0Z" fill="#222222"/>
</svg>
