<svg width="267" height="50" viewBox="0 0 267 50" fill="none" xmlns="http://www.w3.org/2000/svg">
<path d="M25.5439 26.9924H28.4651L29.6335 22.3186H25.5439V19.9817C25.5439 18.7789 25.5439 17.6448 27.8809 17.6448H29.6335V13.7189C29.253 13.6683 27.8143 13.5552 26.2951 13.5552C23.1234 13.5552 20.8701 15.4911 20.8701 19.0466V22.3186H17.3647V26.9924H20.8701V36.9243H25.5439V26.9924Z" fill="white"/>
<circle cx="24.0368" cy="24.0368" r="23.5368" stroke="white"/>
<path d="M96.6602 2.03125C110.041 2.03125 120.865 12.5822 120.865 25.5684C120.865 38.5544 110.041 49.1045 96.6602 49.1045C83.2797 49.1043 72.4563 38.5543 72.4561 25.5684C72.4561 12.5823 83.2796 2.03146 96.6602 2.03125Z" stroke="white"/>
<path d="M97.0885 22.0286C95.0976 22.0286 93.4848 23.6419 93.4848 25.6322C93.4848 27.623 95.0982 29.2358 97.0885 29.2358C99.0792 29.2358 100.692 27.6225 100.692 25.6322C100.692 23.6414 99.0787 22.0286 97.0885 22.0286ZM97.0885 19.6262C100.404 19.6262 103.094 22.3134 103.094 25.6322C103.094 28.9481 100.407 31.6382 97.0885 31.6382C93.7725 31.6382 91.0824 28.951 91.0824 25.6322C91.0824 22.3163 93.7696 19.6262 97.0885 19.6262ZM104.896 19.3248C104.896 20.1538 104.223 20.8264 103.395 20.8264C102.566 20.8264 101.893 20.1528 101.893 19.3248C101.893 18.4969 102.567 17.8243 103.395 17.8243C104.222 17.8233 104.896 18.4969 104.896 19.3248ZM97.0885 16.0225C94.1161 16.0225 93.6316 16.0304 92.2491 16.092C91.3072 16.1362 90.6758 16.2629 90.0892 16.4906C89.5679 16.6928 89.1918 16.9342 88.7911 17.3349C88.3889 17.7371 88.1479 18.1122 87.9465 18.6338C87.7183 19.2217 87.5916 19.8521 87.5482 20.7927C87.486 22.1189 87.4788 22.5824 87.4788 25.6322C87.4788 28.6046 87.4866 29.089 87.5482 30.4714C87.5924 31.4129 87.7193 32.0452 87.9465 32.6304C88.1492 33.1525 88.3911 33.5294 88.7899 33.9282C89.1937 34.3315 89.5698 34.5733 90.0865 34.7727C90.6802 35.0022 91.3112 35.1291 92.2489 35.1724C93.5751 35.2345 94.0386 35.2419 97.0885 35.2419C100.061 35.2419 100.545 35.2339 101.928 35.1724C102.867 35.1283 103.5 35.0011 104.087 34.7741C104.607 34.5719 104.985 34.3292 105.384 33.9307C105.788 33.5263 106.03 33.151 106.229 32.6332C106.458 32.0416 106.585 31.4098 106.629 30.4717C106.691 29.1455 106.698 28.6819 106.698 25.6322C106.698 22.6598 106.69 22.1754 106.629 20.793C106.584 19.8533 106.457 19.2195 106.23 18.633C106.028 18.1131 105.786 17.7359 105.386 17.3349C104.983 16.932 104.609 16.6915 104.087 16.4903C103.499 16.2622 102.868 16.1354 101.928 16.092C100.602 16.0298 100.138 16.0225 97.0885 16.0225ZM97.0885 13.6201C100.352 13.6201 100.759 13.6321 102.04 13.6922C103.319 13.7513 104.191 13.9535 104.956 14.2508C105.748 14.5561 106.417 14.9685 107.084 15.6361C107.751 16.3038 108.164 16.9745 108.47 17.7643C108.766 18.5291 108.968 19.4019 109.028 20.6802C109.086 21.9615 109.101 22.3689 109.101 25.6322C109.101 28.8955 109.089 29.3028 109.028 30.5842C108.969 31.8625 108.766 32.7343 108.47 33.5001C108.165 34.2919 107.751 34.9605 107.084 35.6283C106.417 36.295 105.745 36.7073 104.956 37.0136C104.191 37.31 103.319 37.5121 102.04 37.5722C100.759 37.6293 100.352 37.6443 97.0885 37.6443C93.8251 37.6443 93.4177 37.6323 92.1365 37.5722C90.8582 37.5131 89.9873 37.31 89.2205 37.0136C88.4297 36.7083 87.76 36.295 87.0924 35.6283C86.4247 34.9605 86.0133 34.2889 85.707 33.5001C85.4097 32.7343 85.2085 31.8625 85.1484 30.5842C85.0914 29.3028 85.0764 28.8955 85.0764 25.6322C85.0764 22.3689 85.0884 21.9615 85.1484 20.6802C85.2075 19.4009 85.4097 18.5301 85.707 17.7643C86.0123 16.9735 86.4247 16.3038 87.0924 15.6361C87.76 14.9685 88.4307 14.5571 89.2205 14.2508C89.9863 13.9535 90.8572 13.7522 92.1365 13.6922C93.4177 13.6351 93.8251 13.6201 97.0885 13.6201Z" fill="white"/>
<path d="M170.144 2.03125C183.525 2.03125 194.349 12.5822 194.349 25.5684C194.349 38.5544 183.525 49.1045 170.144 49.1045C156.764 49.1043 145.94 38.5543 145.94 25.5684C145.94 12.5823 156.763 2.03146 170.144 2.03125Z" stroke="white"/>
<circle cx="242.963" cy="25.9162" r="23.5368" stroke="white"/>
<path d="M165.506 14.479H157.327L166.979 26.7361L157.853 36.7352H160.949L168.414 28.5572L174.854 36.7353H183.033L172.975 23.9628L181.631 14.479H178.534L171.54 22.1416L165.506 14.479ZM176.022 34.5097L162.001 16.7046H164.338L178.359 34.5097H176.022Z" fill="white"/>
<path d="M243.949 16.7031C244.573 16.7064 246.134 16.7208 247.793 16.7841L248.381 16.8085C250.052 16.8838 251.721 17.0125 252.548 17.2323C253.652 17.5277 254.52 18.3896 254.814 19.4822C255.281 21.2172 255.339 24.6034 255.346 25.4229L255.347 25.5927V25.6046C255.347 25.6046 255.347 25.6088 255.347 25.6167L255.346 25.7865C255.339 26.606 255.281 29.9923 254.814 31.7272C254.516 32.8238 253.648 33.6858 252.548 33.9771C251.721 34.1969 250.052 34.3256 248.381 34.4009L247.793 34.4253C246.134 34.4886 244.573 34.5029 243.949 34.5063L243.675 34.5072H243.663C243.663 34.5072 243.659 34.5072 243.651 34.5072L243.377 34.5063C242.056 34.4994 236.534 34.4425 234.777 33.9771C233.673 33.6817 232.805 32.8198 232.512 31.7272C232.045 29.9923 231.987 26.606 231.979 25.7865V25.4229C231.987 24.6034 232.045 21.2172 232.512 19.4822C232.809 18.3855 233.677 17.5236 234.777 17.2323C236.534 16.7668 242.056 16.71 243.377 16.7031H243.949ZM241.326 21.7098V29.4995L248.337 25.6046L241.326 21.7098Z" fill="white"/>
</svg>
